<svg xmlns="http://www.w3.org/2000/svg" width="300" zoomAndPan="magnify"
     viewBox="0 0 224.87999 225" height="300" preserveAspectRatio="xMidYMid meet" version="1.0">
    <defs>
        <clipPath id="1b0a3f4c92">
            <path d="M 0 0.0585938 L 224.761719 0.0585938 L 224.761719 217.445312 L 0 217.445312 Z M 0 0.0585938 "
                  clip-rule="nonzero"/>
        </clipPath>
    </defs>
    <g clip-path="url(#1b0a3f4c92)">
        <path fill="#000000"
              d="M 224.875 3.976562 L 224.851562 3.566406 C 224.628906 1.585938 222.839844 0.164062 220.855469 0.390625 L 83.867188 16.511719 C 82.007812 16.65625 80.539062 18.210938 80.539062 20.105469 L 80.539062 108.234375 C 78.511719 108.871094 76.695312 110.027344 75.238281 111.5625 C 72.996094 113.910156 71.601562 117.125 71.601562 120.628906 L 71.605469 120.777344 C 55.855469 123.417969 41.714844 130.992188 30.859375 141.835938 C 17.214844 155.472656 8.746094 174.28125 8.746094 194.976562 C 8.746094 195.519531 8.757812 196.171875 8.78125 196.925781 C 6.550781 197.257812 4.542969 198.296875 3.011719 199.824219 C 1.15625 201.691406 0 204.269531 0 207.101562 C 0 209.933594 1.15625 212.511719 3.023438 214.378906 C 4.890625 216.242188 7.464844 217.398438 10.304688 217.398438 L 221.269531 217.398438 C 223.265625 217.398438 224.886719 215.78125 224.886719 213.789062 L 224.886719 20.105469 Z M 217.648438 16.492188 L 145.722656 16.492188 L 217.65625 8.03125 L 217.65625 16.492188 Z M 80.445312 116.515625 L 80.460938 116.515625 C 81.414062 115.523438 82.722656 114.90625 84.160156 114.90625 L 84.195312 114.90625 C 85.632812 114.90625 86.945312 115.523438 87.894531 116.515625 L 88.050781 116.675781 C 88.816406 117.539062 89.328125 118.664062 89.472656 119.921875 C 87.769531 119.804688 86.050781 119.742188 84.3125 119.742188 L 84.042969 119.742188 C 82.304688 119.742188 80.589844 119.804688 78.882812 119.921875 C 79.035156 118.585938 79.601562 117.398438 80.445312 116.515625 Z M 35.980469 146.949219 C 48.316406 134.621094 65.332031 126.96875 84.042969 126.96875 L 84.3125 126.96875 C 103.023438 126.96875 120.039062 134.621094 132.375 146.949219 C 144.710938 159.273438 152.367188 176.28125 152.367188 194.980469 L 152.351562 196.808594 L 16 196.808594 L 15.984375 194.980469 C 15.984375 176.277344 23.640625 159.273438 35.980469 146.949219 Z M 8.136719 209.269531 C 7.578125 208.714844 7.230469 207.945312 7.230469 207.101562 C 7.230469 206.257812 7.578125 205.496094 8.136719 204.933594 C 8.691406 204.375 9.460938 204.027344 10.304688 204.027344 L 158.050781 204.027344 C 158.894531 204.027344 159.660156 204.375 160.222656 204.933594 C 160.777344 205.488281 161.125 206.257812 161.125 207.101562 C 161.125 207.945312 160.777344 208.707031 160.222656 209.269531 C 159.664062 209.828125 158.894531 210.175781 158.050781 210.175781 L 10.300781 210.175781 C 9.460938 210.175781 8.691406 209.828125 8.136719 209.269531 Z M 217.648438 210.175781 L 167.878906 210.175781 C 168.183594 209.203125 168.351562 208.167969 168.351562 207.101562 C 168.351562 204.269531 167.191406 201.691406 165.324219 199.824219 C 163.796875 198.296875 161.789062 197.257812 159.558594 196.925781 C 159.582031 196.167969 159.589844 195.511719 159.589844 194.976562 C 159.589844 188.058594 158.640625 181.355469 156.875 174.984375 L 193.125 174.984375 C 195.121094 174.984375 196.742188 173.367188 196.742188 171.371094 C 196.742188 169.378906 195.121094 167.757812 193.125 167.757812 L 154.46875 167.757812 C 152.996094 163.988281 151.21875 160.363281 149.183594 156.914062 L 193.125 156.914062 C 195.121094 156.914062 196.742188 155.296875 196.742188 153.300781 C 196.742188 151.308594 195.121094 149.691406 193.125 149.691406 L 144.332031 149.691406 C 142.230469 146.914062 139.941406 144.285156 137.480469 141.828125 C 136.457031 140.804688 135.394531 139.8125 134.316406 138.84375 L 193.125 138.84375 C 195.121094 138.84375 196.742188 137.226562 196.742188 135.234375 C 196.742188 133.238281 195.121094 131.621094 193.125 131.621094 L 124.808594 131.621094 C 116.425781 126.238281 106.917969 122.472656 96.730469 120.765625 L 96.738281 120.617188 C 96.738281 117.21875 95.433594 114.101562 93.3125 111.773438 L 93.105469 111.539062 C 91.636719 110.003906 89.804688 108.847656 87.765625 108.210938 L 87.765625 23.71875 L 217.644531 23.71875 L 217.644531 210.175781 Z M 129.011719 76.816406 C 130.425781 78.226562 132.714844 78.226562 134.125 76.816406 L 138.941406 72 L 149.769531 82.820312 L 127.421875 105.15625 C 126.011719 106.566406 126.011719 108.851562 127.421875 110.261719 C 128.832031 111.671875 131.121094 111.671875 132.53125 110.261719 L 154.878906 87.929688 L 177.226562 110.261719 C 178.640625 111.671875 180.925781 111.671875 182.339844 110.261719 C 183.75 108.851562 183.75 106.566406 182.339844 105.15625 L 159.992188 82.820312 L 171.160156 71.65625 C 173.730469 73.117188 176.703125 73.71875 179.734375 73.484375 C 183.789062 73.164062 187.945312 71.320312 191.230469 68.035156 C 194.519531 64.746094 196.359375 60.601562 196.6875 56.550781 C 197.023438 52.308594 195.703125 48.148438 192.648438 45.097656 L 192.414062 44.867188 C 189.382812 41.96875 185.324219 40.722656 181.175781 41.050781 C 177.121094 41.371094 172.964844 43.214844 169.675781 46.503906 C 166.390625 49.789062 164.550781 53.9375 164.222656 57.992188 C 163.984375 61.015625 164.589844 63.988281 166.058594 66.554688 L 154.878906 77.726562 L 144.050781 66.902344 L 148.871094 62.089844 C 150.28125 60.679688 150.28125 58.390625 148.871094 56.980469 L 129.597656 37.722656 C 128.1875 36.308594 125.898438 36.308594 124.488281 37.722656 C 123.078125 39.132812 123.078125 41.417969 124.488281 42.828125 L 141.207031 59.539062 L 138.941406 61.800781 L 122.222656 45.09375 C 120.8125 43.683594 118.523438 43.683594 117.113281 45.09375 C 115.699219 46.503906 115.699219 48.789062 117.113281 50.199219 L 133.832031 66.910156 L 131.566406 69.175781 L 114.847656 52.464844 C 113.433594 51.054688 111.148438 51.054688 109.734375 52.464844 C 108.324219 53.875 108.324219 56.160156 109.734375 57.570312 Z M 171.429688 58.542969 C 171.621094 56.140625 172.757812 53.632812 174.792969 51.597656 C 176.828125 49.566406 179.335938 48.429688 181.742188 48.238281 C 183.878906 48.070312 185.917969 48.65625 187.398438 50.03125 L 187.550781 50.175781 C 189.027344 51.660156 189.664062 53.769531 189.488281 55.976562 C 189.296875 58.378906 188.164062 60.886719 186.128906 62.921875 C 184.09375 64.953125 181.585938 66.089844 179.179688 66.28125 C 177.007812 66.449219 174.929688 65.832031 173.4375 64.402344 C 173.417969 64.382812 173.398438 64.359375 173.375 64.335938 C 173.355469 64.3125 173.332031 64.296875 173.308594 64.273438 C 171.875 62.796875 171.257812 60.71875 171.429688 58.542969 Z M 171.429688 58.542969 "
              fill-opacity="1" fill-rule="nonzero"/>
    </g>
</svg>