<svg xmlns="http://www.w3.org/2000/svg" width="300" zoomAndPan="magnify"
     viewBox="0 0 224.87999 225" height="300" preserveAspectRatio="xMidYMid meet" version="1.0">
    <defs>
        <clipPath id="5ab6c2bf59">
            <path d="M 0 0.0585938 L 185 0.0585938 L 185 224.9375 L 0 224.9375 Z M 0 0.0585938 " clip-rule="nonzero"/>
        </clipPath>
        <clipPath id="9b4525b789">
            <path d="M 192 67 L 224.761719 67 L 224.761719 224.9375 L 192 224.9375 Z M 192 67 " clip-rule="nonzero"/>
        </clipPath>
    </defs>
    <g clip-path="url(#5ab6c2bf59)">
        <path fill="#010101"
              d="M 183.3125 62.414062 C 163.890625 41.289062 176.15625 54.578125 126.75 1.082031 C 126.070312 0.742188 125.046875 0.0585938 124.367188 0.0585938 L 3.40625 0.0585938 C 1.363281 0.0585938 0 1.421875 0 3.46875 L 0 221.53125 C 0 223.578125 1.363281 224.941406 3.40625 224.941406 L 181.265625 224.941406 C 182.289062 224.941406 182.96875 224.597656 183.652344 223.917969 C 184.332031 223.234375 184.675781 222.554688 184.675781 221.53125 L 184.675781 65.480469 C 184.675781 64.117188 184.332031 63.09375 183.3125 62.414062 Z M 127.773438 12.328125 C 163.550781 50.828125 157.757812 44.695312 173.429688 61.730469 L 127.773438 61.730469 Z M 6.816406 218.125 L 6.816406 6.875 L 120.957031 6.875 L 120.957031 65.140625 C 120.957031 67.183594 122.320312 68.546875 124.367188 68.546875 L 177.859375 68.546875 L 177.859375 218.125 Z M 6.816406 218.125 "
              fill-opacity="1" fill-rule="nonzero"/>
    </g>
    <g clip-path="url(#9b4525b789)">
        <path fill="#010101"
              d="M 208.523438 67.523438 C 199.667969 67.523438 192.171875 74.679688 192.171875 83.878906 L 192.171875 179.28125 C 192.171875 179.28125 192.171875 180.304688 192.171875 180.304688 L 205.117188 222.554688 C 205.457031 223.917969 206.820312 224.941406 208.523438 224.941406 C 209.886719 224.941406 211.25 223.917969 211.933594 222.554688 L 224.878906 180.304688 C 224.878906 180.304688 224.878906 179.28125 224.878906 179.28125 L 224.878906 83.878906 C 224.878906 75.019531 217.726562 67.523438 208.523438 67.523438 Z M 199.324219 102.617188 L 218.066406 102.617188 L 218.066406 110.796875 L 199.324219 110.796875 Z M 199.324219 117.609375 L 218.066406 117.609375 L 218.066406 175.875 L 199.324219 175.875 Z M 208.523438 74.339844 C 213.636719 74.339844 218.066406 78.425781 218.066406 83.878906 L 218.066406 95.804688 L 199.324219 95.804688 L 199.324219 83.878906 C 199.324219 78.769531 203.414062 74.339844 208.523438 74.339844 Z M 208.523438 209.949219 L 200.347656 182.691406 L 217.042969 182.691406 Z M 208.523438 209.949219 "
              fill-opacity="1" fill-rule="nonzero"/>
    </g>
    <path fill="#010101"
          d="M 83.136719 96.144531 L 89.953125 101.257812 C 90.632812 101.597656 91.316406 101.9375 91.996094 101.9375 C 93.019531 101.9375 94.039062 101.597656 94.382812 100.914062 L 101.535156 93.761719 C 102.898438 92.398438 102.898438 90.695312 101.878906 89.332031 L 96.425781 82.515625 C 98.128906 79.449219 99.832031 76.042969 100.515625 72.292969 L 109.03125 71.273438 C 110.738281 70.929688 112.097656 69.570312 112.097656 67.863281 L 112.097656 57.644531 C 112.097656 55.9375 110.738281 54.578125 109.03125 54.234375 L 100.515625 53.214844 C 99.492188 49.804688 98.128906 46.398438 96.425781 42.992188 L 101.535156 36.175781 C 102.558594 34.8125 102.558594 32.769531 101.195312 31.40625 L 94.382812 23.910156 C 93.019531 22.546875 91.316406 22.546875 89.953125 23.570312 L 83.136719 29.023438 C 80.070312 27.316406 76.664062 25.613281 72.914062 24.933594 L 71.894531 16.414062 C 71.550781 14.710938 70.191406 13.347656 68.484375 13.347656 L 58.265625 13.347656 C 56.5625 13.347656 55.199219 14.710938 54.855469 16.414062 L 53.835938 24.933594 C 50.425781 25.957031 47.019531 27.316406 43.613281 29.023438 L 36.796875 23.570312 C 35.4375 22.546875 33.390625 22.546875 32.367188 23.910156 L 25.214844 31.40625 C 23.851562 32.769531 23.851562 34.472656 24.875 35.835938 L 30.324219 42.652344 C 28.621094 45.71875 26.917969 49.125 26.234375 52.871094 L 17.035156 53.894531 C 15.332031 54.234375 13.96875 55.597656 13.96875 57.300781 L 13.96875 67.523438 C 13.96875 69.226562 15.332031 70.589844 17.035156 70.929688 L 25.554688 71.953125 C 26.578125 75.359375 27.941406 78.769531 29.644531 82.175781 L 24.191406 88.988281 C 23.167969 90.351562 23.167969 92.398438 24.53125 93.417969 L 31.6875 100.914062 C 33.050781 102.277344 34.753906 102.277344 36.117188 101.257812 L 42.929688 95.804688 C 46 97.507812 49.40625 99.210938 53.152344 99.894531 L 54.175781 108.410156 C 54.515625 110.113281 55.878906 111.476562 57.582031 111.476562 L 67.804688 111.476562 C 69.507812 111.476562 70.871094 110.113281 71.210938 108.410156 L 72.234375 99.894531 C 76.664062 99.210938 80.070312 97.847656 83.136719 96.144531 Z M 69.507812 94.101562 C 68.144531 94.441406 67.125 95.464844 66.78125 97.167969 L 65.761719 105.34375 L 61.332031 105.34375 L 60.308594 97.167969 C 59.96875 95.804688 58.945312 94.441406 57.582031 94.101562 C 53.152344 93.417969 49.066406 91.714844 45.65625 88.988281 C 44.292969 88.308594 42.933594 88.308594 41.570312 88.988281 L 35.09375 93.761719 L 32.027344 90.695312 L 36.796875 84.21875 C 37.820312 83.199219 37.820312 81.152344 36.796875 80.132812 C 34.414062 76.382812 32.710938 72.636719 32.027344 68.207031 C 31.6875 66.84375 30.664062 65.820312 29.300781 65.480469 L 20.785156 64.796875 L 20.785156 60.367188 L 28.960938 59.347656 C 30.324219 59.003906 31.6875 57.984375 32.027344 56.621094 C 32.710938 52.191406 34.414062 48.101562 37.140625 44.695312 C 37.820312 43.332031 37.820312 41.96875 37.140625 40.605469 L 31.6875 34.132812 L 34.753906 31.066406 L 41.226562 35.835938 C 42.25 36.859375 44.292969 36.859375 45.316406 35.835938 C 49.066406 33.453125 52.8125 31.746094 57.242188 31.066406 C 58.605469 30.726562 59.628906 29.703125 59.96875 28 L 60.988281 19.820312 L 65.417969 19.820312 L 66.441406 28 C 66.78125 29.363281 67.804688 30.726562 69.167969 31.066406 C 73.597656 31.746094 77.6875 33.453125 81.09375 36.175781 C 82.457031 36.859375 83.820312 36.859375 85.183594 36.175781 L 91.65625 31.40625 L 94.722656 34.472656 L 89.953125 40.949219 C 88.929688 41.96875 88.929688 43.671875 89.953125 45.035156 C 92.335938 48.785156 94.039062 52.871094 95.0625 56.960938 C 95.402344 58.324219 96.425781 59.347656 98.128906 59.6875 L 106.308594 60.710938 L 106.308594 64.796875 L 98.128906 65.820312 C 96.765625 66.160156 95.402344 67.183594 95.402344 68.546875 C 94.722656 72.976562 93.019531 77.0625 90.292969 80.472656 C 89.609375 81.835938 89.609375 83.199219 90.292969 84.558594 L 95.0625 91.035156 L 91.996094 94.101562 L 85.523438 89.332031 C 84.5 88.308594 82.796875 88.308594 81.433594 89.332031 C 77.6875 91.714844 73.597656 93.078125 69.507812 94.101562 Z M 69.507812 94.101562 "
          fill-opacity="1" fill-rule="nonzero"/>
    <path fill="#010101"
          d="M 63.375 38.222656 C 50.085938 38.222656 39.183594 49.125 39.183594 62.414062 C 39.183594 75.703125 50.085938 86.605469 63.375 86.605469 C 76.664062 86.605469 87.566406 75.703125 87.566406 62.414062 C 87.566406 49.125 76.664062 38.222656 63.375 38.222656 Z M 63.375 79.789062 C 53.835938 79.789062 46 71.953125 46 62.414062 C 46 52.871094 53.835938 45.035156 63.375 45.035156 C 72.914062 45.035156 80.753906 52.871094 80.753906 62.414062 C 80.753906 71.953125 72.914062 79.789062 63.375 79.789062 Z M 63.375 79.789062 "
          fill-opacity="1" fill-rule="nonzero"/>
    <path fill="#010101"
          d="M 58.265625 123.742188 C 60.308594 123.742188 61.671875 122.382812 61.671875 120.335938 C 61.671875 118.292969 60.308594 116.929688 58.265625 116.929688 L 23.851562 116.929688 C 21.804688 116.929688 20.445312 118.292969 20.445312 120.335938 L 20.445312 155.089844 C 20.445312 157.136719 21.804688 158.5 23.851562 158.5 L 58.265625 158.5 C 60.308594 158.5 61.671875 157.136719 61.671875 155.089844 L 61.671875 143.507812 C 61.671875 141.460938 60.308594 140.097656 58.265625 140.097656 C 56.21875 140.097656 54.855469 141.460938 54.855469 143.507812 L 54.855469 151.683594 L 27.257812 151.683594 L 27.257812 123.742188 Z M 58.265625 123.742188 "
          fill-opacity="1" fill-rule="nonzero"/>
    <path fill="#010101"
          d="M 57.921875 127.832031 L 40.886719 140.097656 L 37.140625 132.601562 C 36.457031 130.898438 34.414062 130.21875 32.710938 131.238281 C 31.007812 131.921875 30.324219 133.964844 31.347656 135.667969 L 36.796875 146.914062 C 37.140625 147.9375 38.160156 148.617188 39.183594 148.617188 C 40.207031 148.957031 41.226562 148.617188 41.910156 147.9375 L 62.351562 133.285156 C 63.714844 132.261719 64.058594 130.21875 63.035156 128.515625 C 61.332031 126.8125 59.285156 126.46875 57.921875 127.832031 Z M 57.921875 127.832031 "
          fill-opacity="1" fill-rule="nonzero"/>
    <path fill="#010101"
          d="M 58.265625 189.164062 C 56.21875 189.164062 54.855469 190.527344 54.855469 192.570312 L 54.855469 201.089844 L 27.257812 201.089844 L 27.257812 173.148438 L 58.265625 173.148438 C 60.308594 173.148438 61.671875 171.785156 61.671875 169.742188 C 61.671875 167.699219 60.308594 166.335938 58.265625 166.335938 L 23.851562 166.335938 C 21.804688 166.335938 20.445312 167.699219 20.445312 169.742188 L 20.445312 204.496094 C 20.445312 206.539062 21.804688 207.902344 23.851562 207.902344 L 58.265625 207.902344 C 60.308594 207.902344 61.671875 206.539062 61.671875 204.496094 L 61.671875 192.910156 C 61.671875 190.867188 59.96875 189.164062 58.265625 189.164062 Z M 58.265625 189.164062 "
          fill-opacity="1" fill-rule="nonzero"/>
    <path fill="#010101"
          d="M 57.921875 177.238281 L 40.886719 189.503906 L 37.140625 182.007812 C 36.457031 180.304688 34.414062 179.625 32.710938 180.644531 C 31.007812 181.328125 30.324219 183.371094 31.347656 185.074219 L 36.796875 196.320312 C 37.140625 197.339844 38.160156 198.023438 39.183594 198.023438 C 40.207031 198.363281 41.226562 198.023438 41.910156 197.339844 L 62.351562 182.691406 C 63.714844 181.667969 64.058594 179.625 63.035156 177.917969 C 61.332031 176.214844 59.285156 175.875 57.921875 177.238281 Z M 57.921875 177.238281 "
          fill-opacity="1" fill-rule="nonzero"/>
    <path fill="#010101"
          d="M 115.164062 93.761719 L 165.253906 93.761719 C 167.296875 93.761719 168.660156 92.398438 168.660156 90.351562 C 168.660156 88.308594 167.296875 86.945312 165.253906 86.945312 L 115.164062 86.945312 C 113.121094 86.945312 111.757812 88.308594 111.757812 90.351562 C 111.757812 92.398438 113.121094 93.761719 115.164062 93.761719 Z M 115.164062 93.761719 "
          fill-opacity="1" fill-rule="nonzero"/>
    <path fill="#010101"
          d="M 165.253906 109.773438 L 80.070312 109.773438 C 78.027344 109.773438 76.664062 111.136719 76.664062 113.179688 C 76.664062 115.226562 78.027344 116.589844 80.070312 116.589844 L 164.910156 116.589844 C 166.957031 116.589844 168.320312 115.226562 168.320312 113.179688 C 168.660156 111.476562 166.957031 109.773438 165.253906 109.773438 Z M 165.253906 109.773438 "
          fill-opacity="1" fill-rule="nonzero"/>
    <path fill="#010101"
          d="M 165.253906 132.601562 L 76.664062 132.601562 C 74.621094 132.601562 73.257812 133.964844 73.257812 136.011719 C 73.257812 138.054688 74.621094 139.417969 76.664062 139.417969 L 165.253906 139.417969 C 167.296875 139.417969 168.660156 138.054688 168.660156 136.011719 C 168.660156 134.304688 166.957031 132.601562 165.253906 132.601562 Z M 165.253906 132.601562 "
          fill-opacity="1" fill-rule="nonzero"/>
    <path fill="#010101"
          d="M 165.253906 155.429688 L 76.664062 155.429688 C 74.621094 155.429688 73.257812 156.792969 73.257812 158.839844 C 73.257812 160.882812 74.621094 162.246094 76.664062 162.246094 L 165.253906 162.246094 C 167.296875 162.246094 168.660156 160.882812 168.660156 158.839844 C 168.660156 156.792969 166.957031 155.429688 165.253906 155.429688 Z M 165.253906 155.429688 "
          fill-opacity="1" fill-rule="nonzero"/>
    <path fill="#010101"
          d="M 165.253906 178.261719 L 76.664062 178.261719 C 74.621094 178.261719 73.257812 179.625 73.257812 181.667969 C 73.257812 183.710938 74.621094 185.074219 76.664062 185.074219 L 165.253906 185.074219 C 167.296875 185.074219 168.660156 183.710938 168.660156 181.667969 C 168.660156 179.625 166.957031 178.261719 165.253906 178.261719 Z M 165.253906 178.261719 "
          fill-opacity="1" fill-rule="nonzero"/>
    <path fill="#010101"
          d="M 165.253906 201.089844 L 76.664062 201.089844 C 74.621094 201.089844 73.257812 202.453125 73.257812 204.496094 C 73.257812 206.539062 74.621094 207.902344 76.664062 207.902344 L 165.253906 207.902344 C 167.296875 207.902344 168.660156 206.539062 168.660156 204.496094 C 168.660156 202.453125 166.957031 201.089844 165.253906 201.089844 Z M 165.253906 201.089844 "
          fill-opacity="1" fill-rule="nonzero"/>
</svg>