<svg xmlns="http://www.w3.org/2000/svg" width="300" zoomAndPan="magnify"
     viewBox="0 0 224.87999 225" height="300" preserveAspectRatio="xMidYMid meet" version="1.0">
    <defs>
        <clipPath id="ff941fa70d">
            <path d="M 0 0.0585938 L 219.632812 0.0585938 L 219.632812 224.9375 L 0 224.9375 Z M 0 0.0585938 "
                  clip-rule="nonzero"/>
        </clipPath>
    </defs>
    <g clip-path="url(#ff941fa70d)">
        <path fill="#040606"
              d="M 210.464844 183.949219 L 207.730469 190.433594 C 203.605469 190.730469 196.414062 191.980469 191.558594 196.78125 C 186.667969 201.601562 185.320312 208.859375 184.960938 212.84375 L 178.425781 215.5 C 175.371094 212.863281 169.347656 208.601562 162.394531 208.539062 C 155.578125 208.539062 149.554688 212.683594 146.503906 215.242188 L 140.003906 212.488281 C 139.707031 208.480469 138.480469 201.222656 133.664062 196.324219 C 128.847656 191.425781 121.597656 190.078125 117.59375 189.703125 L 114.960938 183.15625 C 117.554688 180.121094 121.816406 174.113281 121.894531 167.234375 C 121.933594 160.371094 117.773438 154.304688 115.21875 151.230469 L 117.953125 144.726562 C 122.074219 144.40625 129.246094 143.160156 134.121094 138.359375 C 139.015625 133.539062 140.363281 126.28125 140.71875 122.277344 L 147.257812 119.640625 C 150.289062 122.257812 156.292969 126.539062 163.148438 126.578125 L 163.304688 126.578125 C 170.101562 126.578125 176.125 122.453125 179.175781 119.898438 L 185.65625 122.632812 C 185.953125 126.640625 187.203125 133.917969 192.015625 138.816406 C 196.832031 143.714844 204.082031 145.0625 208.085938 145.417969 L 210.71875 151.964844 C 208.105469 154.996094 203.84375 161.027344 203.785156 167.886719 C 203.746094 174.769531 207.90625 180.855469 210.464844 183.949219 Z M 33.863281 137.050781 C 49.8125 121.125 71.765625 111.269531 96.078125 111.269531 C 109.195312 111.269531 121.636719 114.164062 132.8125 119.320312 C 132.792969 119.460938 132.753906 119.578125 132.753906 119.699219 C 132.753906 119.699219 132.695312 128.382812 128.433594 132.589844 C 124.3125 136.652344 116.128906 136.714844 115.515625 136.714844 L 115.457031 136.714844 C 113.96875 136.714844 112.226562 137.765625 111.550781 139.09375 L 106.699219 150.535156 C 106.242188 151.945312 106.699219 153.964844 107.746094 155.015625 C 107.746094 155.015625 113.832031 161.183594 113.792969 167.191406 C 113.730469 173.183594 107.550781 179.25 107.550781 179.25 C 106.5 180.300781 106.003906 182.304688 106.441406 183.730469 L 111.117188 195.253906 L 8.203125 195.253906 C 9.234375 172.566406 18.824219 152.101562 33.863281 137.050781 Z M 62.789062 89.359375 C 54.269531 80.808594 49 69.070312 49 56.042969 C 49 43.011719 54.269531 31.273438 62.789062 22.726562 C 71.328125 14.199219 83.058594 8.925781 96.078125 8.925781 C 109.09375 8.925781 120.824219 14.199219 129.363281 22.726562 C 137.882812 31.273438 143.15625 43.011719 143.15625 56.042969 C 143.15625 69.070312 137.882812 80.832031 129.363281 89.359375 C 120.824219 97.882812 109.09375 103.160156 96.078125 103.160156 C 83.058594 103.160156 71.308594 97.882812 62.789062 89.359375 Z M 211.890625 167.945312 C 211.929688 161.957031 218.132812 155.871094 218.132812 155.871094 C 219.199219 154.839844 219.695312 152.835938 219.242188 151.40625 L 214.585938 139.886719 C 213.910156 138.558594 212.167969 137.46875 210.679688 137.445312 C 210.679688 137.445312 201.984375 137.40625 197.800781 133.144531 C 193.582031 128.859375 193.660156 120.175781 193.660156 120.175781 C 193.679688 118.6875 192.609375 116.902344 191.304688 116.226562 L 179.871094 111.390625 C 179.492188 111.269531 179.078125 111.210938 178.640625 111.210938 C 177.453125 111.210938 176.164062 111.667969 175.390625 112.421875 C 175.390625 112.421875 169.269531 118.46875 163.304688 118.46875 L 163.226562 118.46875 C 157.222656 118.429688 151.160156 112.222656 151.160156 112.222656 C 150.386719 111.429688 149.058594 110.953125 147.851562 110.953125 C 147.453125 110.953125 147.058594 111.011719 146.703125 111.132812 L 140.003906 113.828125 C 133.527344 110.476562 126.589844 107.859375 119.359375 106.054688 C 138.183594 97.269531 151.257812 78.210938 151.257812 56.042969 C 151.257812 25.542969 126.550781 0.8125 96.078125 0.8125 C 65.605469 0.8125 40.914062 25.542969 40.894531 56.042969 C 40.894531 78.171875 53.953125 97.230469 72.738281 106.015625 C 30.96875 116.464844 0 154.261719 0 199.320312 C 0 200.390625 0.4375 201.441406 1.1875 202.195312 C 1.941406 202.929688 2.972656 203.363281 4.042969 203.363281 L 128.96875 203.363281 C 132.058594 207.886719 132 214.964844 132 214.964844 C 131.980469 216.453125 133.050781 218.21875 134.359375 218.910156 L 145.808594 223.75 C 146.1875 223.871094 146.601562 223.929688 147.039062 223.929688 C 148.226562 223.929688 149.515625 223.472656 150.289062 222.699219 C 150.289062 222.699219 156.429688 216.652344 162.394531 216.652344 L 162.453125 216.652344 C 168.4375 216.710938 174.519531 222.917969 174.519531 222.917969 C 175.292969 223.710938 176.621094 224.1875 177.828125 224.1875 C 178.226562 224.1875 178.621094 224.128906 178.980469 224.027344 L 190.492188 219.347656 C 191.816406 218.695312 192.90625 216.929688 192.925781 215.441406 C 192.925781 215.441406 192.988281 206.777344 197.246094 202.550781 C 201.347656 198.527344 209.453125 198.425781 210.144531 198.425781 L 210.246094 198.425781 C 211.710938 198.425781 213.476562 197.375 214.148438 196.066406 L 218.984375 184.625 C 219.457031 183.214844 218.984375 181.195312 217.953125 180.144531 C 217.953125 180.144531 211.851562 173.957031 211.890625 167.945312 "
              fill-opacity="1" fill-rule="nonzero"/>
    </g>
    <path fill="#040606"
          d="M 163.007812 144.644531 L 162.871094 144.644531 L 162.929688 152.757812 C 171.09375 152.835938 177.691406 159.539062 177.632812 167.667969 C 177.570312 175.78125 170.933594 182.363281 162.730469 182.363281 C 154.566406 182.304688 147.988281 175.601562 148.050781 167.449219 C 148.109375 159.339844 154.746094 152.757812 162.851562 152.757812 L 162.851562 144.644531 C 150.308594 144.644531 140.042969 154.800781 139.945312 167.390625 C 139.847656 180.023438 150.011719 190.375 162.652344 190.496094 L 162.832031 190.496094 C 175.390625 190.496094 185.617188 180.339844 185.734375 167.75 C 185.835938 155.097656 175.667969 144.765625 163.007812 144.644531 "
          fill-opacity="1" fill-rule="nonzero"/>
</svg>