<svg xmlns="http://www.w3.org/2000/svg" width="792" zoomAndPan="magnify" viewBox="0 0 594 162.749997" height="217"
     preserveAspectRatio="xMidYMid meet" version="1.0"><defs><g/><clipPath id="a8ca1ef981"><path d="M 0.457031 0 L 593.542969 0 L 593.542969 162.5 L 0.457031 162.5 Z M 0.457031 0 " clip-rule="nonzero"/></clipPath></defs><g clip-path="url(#a8ca1ef981)"><path fill="#ffffff" d="M 0.457031 0 L 593.542969 0 L 593.542969 169.238281 L 0.457031 169.238281 Z M 0.457031 0 " fill-opacity="1" fill-rule="nonzero"/><path fill="#ffffff" d="M 0.457031 0 L 593.542969 0 L 593.542969 162.5 L 0.457031 162.5 Z M 0.457031 0 " fill-opacity="1" fill-rule="nonzero"/><path fill="#ffffff" d="M 0.457031 0 L 593.542969 0 L 593.542969 162.5 L 0.457031 162.5 Z M 0.457031 0 " fill-opacity="1" fill-rule="nonzero"/></g><g fill="#000000" fill-opacity="1"><g transform="translate(0.455527, 135.777627)"><g><path d="M 62.808594 -89.375 C 62.808594 -102.179688 55.996094 -108.992188 43.1875 -108.992188 L 8.992188 -108.992188 C 7.628906 -108.992188 6.8125 -108.175781 6.8125 -106.8125 L 6.8125 -2.179688 C 6.8125 -0.816406 7.628906 0 8.992188 0 L 23.160156 0 C 24.523438 0 25.339844 -0.816406 25.339844 -2.179688 L 25.339844 -36.511719 L 34.742188 -36.511719 L 43.871094 -1.90625 C 44.140625 -0.679688 44.824219 0 46.1875 0 L 60.355469 0 C 61.855469 0 62.671875 -0.816406 62.261719 -2.453125 L 52.863281 -38.148438 C 59.402344 -41.007812 62.808594 -47.003906 62.808594 -56.132812 Z M 25.339844 -54.496094 L 25.339844 -91.007812 L 38.828125 -91.007812 C 42.371094 -91.007812 44.277344 -89.101562 44.277344 -85.558594 L 44.277344 -59.945312 C 44.277344 -56.402344 42.371094 -54.496094 38.828125 -54.496094 Z M 25.339844 -54.496094 "/></g></g></g><g fill="#000000" fill-opacity="1"><g transform="translate(74.84223, 135.777627)"><g><path d="M 61.171875 -106.8125 C 61.171875 -108.175781 60.628906 -108.992188 58.992188 -108.992188 L 8.855469 -108.992188 C 7.628906 -108.992188 6.8125 -108.175781 6.8125 -106.8125 L 6.8125 -2.179688 C 6.8125 -0.816406 7.628906 0 8.855469 0 L 58.992188 0 C 60.628906 0 61.171875 -0.816406 61.171875 -2.179688 L 61.171875 -15.804688 C 61.171875 -17.304688 60.628906 -17.984375 58.992188 -17.984375 L 24.933594 -17.984375 L 24.933594 -45.503906 L 50.953125 -45.503906 C 52.316406 -45.503906 53.132812 -46.324219 53.132812 -47.820312 L 53.132812 -61.308594 C 53.132812 -62.808594 52.316406 -63.625 50.953125 -63.625 L 24.933594 -63.625 L 24.933594 -90.875 L 58.992188 -90.875 C 60.628906 -90.875 61.171875 -91.828125 61.171875 -93.191406 Z M 61.171875 -106.8125 "/></g></g></g><g fill="#000000" fill-opacity="1"><g transform="translate(147.59407, 135.777627)"><g><path d="M 26.429688 -108.992188 C 13.761719 -108.992188 6.8125 -102.179688 6.8125 -89.375 L 6.8125 -57.222656 C 6.8125 -54.632812 8.039062 -53 10.492188 -52.179688 L 42.78125 -41.554688 L 42.78125 -23.433594 C 42.78125 -19.753906 40.871094 -17.984375 37.332031 -17.984375 L 30.789062 -17.984375 C 27.382812 -17.984375 25.339844 -19.753906 25.339844 -23.433594 L 25.339844 -33.925781 C 25.339844 -35.421875 24.660156 -36.105469 23.160156 -36.105469 L 8.992188 -36.105469 C 7.628906 -36.105469 6.8125 -35.421875 6.8125 -33.925781 L 6.8125 -19.617188 C 6.8125 -6.8125 13.761719 0 26.429688 0 L 41.691406 0 C 54.496094 0 61.308594 -6.8125 61.308594 -19.617188 L 61.308594 -51.089844 C 61.308594 -53.679688 60.082031 -55.179688 57.765625 -56.132812 L 25.339844 -66.757812 L 25.339844 -85.558594 C 25.339844 -89.101562 27.382812 -91.007812 30.789062 -91.007812 L 37.332031 -91.007812 C 41.007812 -91.007812 42.78125 -89.101562 42.78125 -85.558594 L 42.78125 -74.933594 C 42.78125 -73.570312 43.597656 -72.753906 44.960938 -72.753906 L 59.128906 -72.753906 C 60.628906 -72.753906 61.308594 -73.570312 61.308594 -74.933594 L 61.308594 -89.375 C 61.308594 -102.179688 54.496094 -108.992188 41.691406 -108.992188 Z M 26.429688 -108.992188 "/></g></g></g><g fill="#000000" fill-opacity="1"><g transform="translate(220.482143, 135.777627)"><g><path d="M 6.265625 -108.992188 C 4.90625 -108.992188 4.085938 -108.175781 4.085938 -106.8125 L 4.085938 -93.191406 C 4.085938 -91.828125 4.90625 -91.007812 6.265625 -91.007812 L 22.070312 -91.007812 L 22.070312 -2.179688 C 22.070312 -0.679688 22.886719 0 24.25 0 L 38.421875 0 C 39.917969 0 40.601562 -0.679688 40.601562 -2.179688 L 40.601562 -91.007812 L 56.402344 -91.007812 C 57.902344 -91.007812 58.585938 -91.828125 58.585938 -93.191406 L 58.585938 -106.8125 C 58.585938 -108.175781 57.902344 -108.992188 56.402344 -108.992188 Z M 6.265625 -108.992188 "/></g></g></g><g fill="#000000" fill-opacity="1"><g transform="translate(287.920654, 135.777627)"><g><path d="M 72.480469 0 C 74.117188 0 74.660156 -0.816406 74.386719 -2.316406 L 51.773438 -107.085938 C 51.5 -108.449219 50.683594 -108.992188 49.457031 -108.992188 L 30.519531 -108.992188 C 29.292969 -108.992188 28.472656 -108.449219 28.203125 -107.085938 L 5.585938 -2.316406 C 5.175781 -0.816406 5.859375 0 7.355469 0 L 21.933594 0 C 23.160156 0 23.84375 -0.679688 24.113281 -1.90625 L 27.792969 -21.796875 L 52.042969 -21.796875 L 55.859375 -1.90625 C 56.132812 -0.679688 56.8125 0 58.039062 0 Z M 48.636719 -37.601562 L 31.199219 -37.601562 L 39.917969 -85.152344 Z M 48.636719 -37.601562 "/></g></g></g><g fill="#000000" fill-opacity="1"><g transform="translate(372.525297, 135.777627)"><g><path d="M 62.808594 -89.375 C 62.808594 -102.179688 55.996094 -108.992188 43.1875 -108.992188 L 8.992188 -108.992188 C 7.628906 -108.992188 6.8125 -108.175781 6.8125 -106.8125 L 6.8125 -2.179688 C 6.8125 -0.816406 7.628906 0 8.992188 0 L 23.160156 0 C 24.523438 0 25.339844 -0.816406 25.339844 -2.179688 L 25.339844 -36.511719 L 34.742188 -36.511719 L 43.871094 -1.90625 C 44.140625 -0.679688 44.824219 0 46.1875 0 L 60.355469 0 C 61.855469 0 62.671875 -0.816406 62.261719 -2.453125 L 52.863281 -38.148438 C 59.402344 -41.007812 62.808594 -47.003906 62.808594 -56.132812 Z M 25.339844 -54.496094 L 25.339844 -91.007812 L 38.828125 -91.007812 C 42.371094 -91.007812 44.277344 -89.101562 44.277344 -85.558594 L 44.277344 -59.945312 C 44.277344 -56.402344 42.371094 -54.496094 38.828125 -54.496094 Z M 25.339844 -54.496094 "/></g></g></g><g fill="#000000" fill-opacity="1"><g transform="translate(446.912024, 135.777627)"><g><path d="M 6.8125 -19.617188 C 6.8125 -6.8125 13.625 0 26.429688 0 L 41.691406 0 C 54.496094 0 61.308594 -6.8125 61.308594 -19.617188 L 61.308594 -89.375 C 61.308594 -102.179688 54.496094 -108.992188 41.691406 -108.992188 L 26.429688 -108.992188 C 13.625 -108.992188 6.8125 -102.179688 6.8125 -89.375 Z M 30.382812 -17.574219 C 26.839844 -17.574219 24.933594 -19.347656 24.933594 -23.023438 L 24.933594 -85.96875 C 24.933594 -89.511719 26.839844 -91.417969 30.382812 -91.417969 L 38.285156 -91.417969 C 41.828125 -91.417969 43.734375 -89.511719 43.734375 -85.96875 L 43.734375 -23.023438 C 43.734375 -19.347656 41.828125 -17.574219 38.285156 -17.574219 Z M 30.382812 -17.574219 "/></g></g></g><g fill="#000000" fill-opacity="1"><g transform="translate(519.800108, 135.777627)"><g><path d="M 6.8125 -19.617188 C 6.8125 -6.8125 13.625 0 26.429688 0 L 41.691406 0 C 54.496094 0 61.308594 -6.8125 61.308594 -19.617188 L 61.308594 -89.375 C 61.308594 -102.179688 54.496094 -108.992188 41.691406 -108.992188 L 26.429688 -108.992188 C 13.625 -108.992188 6.8125 -102.179688 6.8125 -89.375 Z M 30.382812 -17.574219 C 26.839844 -17.574219 24.933594 -19.347656 24.933594 -23.023438 L 24.933594 -85.96875 C 24.933594 -89.511719 26.839844 -91.417969 30.382812 -91.417969 L 38.285156 -91.417969 C 41.828125 -91.417969 43.734375 -89.511719 43.734375 -85.96875 L 43.734375 -23.023438 C 43.734375 -19.347656 41.828125 -17.574219 38.285156 -17.574219 Z M 30.382812 -17.574219 "/></g></g></g></svg>