<svg xmlns="http://www.w3.org/2000/svg" width="1024" zoomAndPan="magnify" viewBox="0 0 768 162.749997" height="217"
     preserveAspectRatio="xMidYMid meet" version="1.0">
    <defs>
        <g/>
        <clipPath id="d34c3516b1">
            <path d="M 0.589844 0 L 767.410156 0 L 767.410156 162.5 L 0.589844 162.5 Z M 0.589844 0 "
                  clip-rule="nonzero"/>
        </clipPath>
    </defs>
    <g clip-path="url(#d34c3516b1)">
        <path fill="#ffffff"
              d="M 0.589844 0 L 767.410156 0 L 767.410156 169.238281 L 0.589844 169.238281 Z M 0.589844 0 "
              fill-opacity="1" fill-rule="nonzero"/>
        <path fill="#ffffff" d="M 0.589844 0 L 767.410156 0 L 767.410156 162.5 L 0.589844 162.5 Z M 0.589844 0 "
              fill-opacity="1" fill-rule="nonzero"/>
        <path fill="#ffffff" d="M 0.589844 0 L 767.410156 0 L 767.410156 162.5 L 0.589844 162.5 Z M 0.589844 0 "
              fill-opacity="1" fill-rule="nonzero"/>
    </g>
    <g fill="#000000" fill-opacity="1">
        <g transform="translate(91.113725, 134.79915)">
            <g>
                <path d="M 62.625 -89.117188 C 62.625 -101.886719 55.832031 -108.679688 43.0625 -108.679688 L 8.964844 -108.679688 C 7.609375 -108.679688 6.792969 -107.863281 6.792969 -106.503906 L 6.792969 -2.171875 C 6.792969 -0.816406 7.609375 0 8.964844 0 L 23.09375 0 C 24.453125 0 25.269531 -0.816406 25.269531 -2.171875 L 25.269531 -36.40625 L 34.640625 -36.40625 L 43.742188 -1.902344 C 44.015625 -0.679688 44.695312 0 46.054688 0 L 60.179688 0 C 61.675781 0 62.492188 -0.816406 62.082031 -2.445312 L 52.710938 -38.039062 C 59.230469 -40.890625 62.625 -46.867188 62.625 -55.96875 Z M 25.269531 -54.339844 L 25.269531 -90.746094 L 38.71875 -90.746094 C 42.25 -90.746094 44.152344 -88.84375 44.152344 -85.3125 L 44.152344 -59.773438 C 44.152344 -56.242188 42.25 -54.339844 38.71875 -54.339844 Z M 25.269531 -54.339844 "/>
            </g>
        </g>
    </g>
    <g fill="#000000" fill-opacity="1">
        <g transform="translate(165.287151, 134.79915)">
            <g>
                <path d="M 60.996094 -106.503906 C 60.996094 -107.863281 60.453125 -108.679688 58.824219 -108.679688 L 8.832031 -108.679688 C 7.609375 -108.679688 6.792969 -107.863281 6.792969 -106.503906 L 6.792969 -2.171875 C 6.792969 -0.816406 7.609375 0 8.832031 0 L 58.824219 0 C 60.453125 0 60.996094 -0.816406 60.996094 -2.171875 L 60.996094 -15.757812 C 60.996094 -17.253906 60.453125 -17.933594 58.824219 -17.933594 L 24.859375 -17.933594 L 24.859375 -45.375 L 50.808594 -45.375 C 52.164062 -45.375 52.980469 -46.1875 52.980469 -47.683594 L 52.980469 -61.132812 C 52.980469 -62.625 52.164062 -63.441406 50.808594 -63.441406 L 24.859375 -63.441406 L 24.859375 -90.609375 L 58.824219 -90.609375 C 60.453125 -90.609375 60.996094 -91.5625 60.996094 -92.921875 Z M 60.996094 -106.503906 "/>
            </g>
        </g>
    </g>
    <g fill="#000000" fill-opacity="1">
        <g transform="translate(237.8304, 134.79915)">
            <g>
                <path d="M 26.355469 -108.679688 C 13.722656 -108.679688 6.792969 -101.886719 6.792969 -89.117188 L 6.792969 -57.054688 C 6.792969 -54.476562 8.015625 -52.84375 10.460938 -52.03125 L 42.65625 -41.433594 L 42.65625 -23.367188 C 42.65625 -19.699219 40.753906 -17.933594 37.222656 -17.933594 L 30.703125 -17.933594 C 27.304688 -17.933594 25.269531 -19.699219 25.269531 -23.367188 L 25.269531 -33.828125 C 25.269531 -35.320312 24.589844 -36 23.09375 -36 L 8.964844 -36 C 7.609375 -36 6.792969 -35.320312 6.792969 -33.828125 L 6.792969 -19.5625 C 6.792969 -6.792969 13.722656 0 26.355469 0 L 41.570312 0 C 54.339844 0 61.132812 -6.792969 61.132812 -19.5625 L 61.132812 -50.941406 C 61.132812 -53.523438 59.910156 -55.019531 57.601562 -55.96875 L 25.269531 -66.566406 L 25.269531 -85.3125 C 25.269531 -88.84375 27.304688 -90.746094 30.703125 -90.746094 L 37.222656 -90.746094 C 40.890625 -90.746094 42.65625 -88.84375 42.65625 -85.3125 L 42.65625 -74.71875 C 42.65625 -73.359375 43.472656 -72.542969 44.832031 -72.542969 L 58.957031 -72.542969 C 60.453125 -72.542969 61.132812 -73.359375 61.132812 -74.71875 L 61.132812 -89.117188 C 61.132812 -101.886719 54.339844 -108.679688 41.570312 -108.679688 Z M 26.355469 -108.679688 "/>
            </g>
        </g>
    </g>
    <g fill="#000000" fill-opacity="1">
        <g transform="translate(310.509489, 134.79915)">
            <g>
                <path d="M 6.25 -108.679688 C 4.890625 -108.679688 4.074219 -107.863281 4.074219 -106.503906 L 4.074219 -92.921875 C 4.074219 -91.5625 4.890625 -90.746094 6.25 -90.746094 L 22.007812 -90.746094 L 22.007812 -2.171875 C 22.007812 -0.679688 22.824219 0 24.179688 0 L 38.308594 0 C 39.804688 0 40.484375 -0.679688 40.484375 -2.171875 L 40.484375 -90.746094 L 56.242188 -90.746094 C 57.734375 -90.746094 58.414062 -91.5625 58.414062 -92.921875 L 58.414062 -106.503906 C 58.414062 -107.863281 57.734375 -108.679688 56.242188 -108.679688 Z M 6.25 -108.679688 "/>
            </g>
        </g>
    </g>
    <g fill="#000000" fill-opacity="1">
        <g transform="translate(377.75463, 134.79915)">
            <g>
                <path d="M 72.273438 0 C 73.902344 0 74.445312 -0.816406 74.171875 -2.308594 L 51.621094 -106.777344 C 51.351562 -108.136719 50.535156 -108.679688 49.3125 -108.679688 L 30.429688 -108.679688 C 29.207031 -108.679688 28.390625 -108.136719 28.121094 -106.777344 L 5.570312 -2.308594 C 5.164062 -0.816406 5.839844 0 7.335938 0 L 21.871094 0 C 23.09375 0 23.773438 -0.679688 24.046875 -1.902344 L 27.714844 -21.734375 L 51.894531 -21.734375 L 55.699219 -1.902344 C 55.96875 -0.679688 56.648438 0 57.871094 0 Z M 48.5 -37.496094 L 31.109375 -37.496094 L 39.804688 -84.90625 Z M 48.5 -37.496094 "/>
            </g>
        </g>
    </g>
    <g fill="#000000" fill-opacity="1">
        <g transform="translate(462.116714, 134.79915)">
            <g>
                <path d="M 62.625 -89.117188 C 62.625 -101.886719 55.832031 -108.679688 43.0625 -108.679688 L 8.964844 -108.679688 C 7.609375 -108.679688 6.792969 -107.863281 6.792969 -106.503906 L 6.792969 -2.171875 C 6.792969 -0.816406 7.609375 0 8.964844 0 L 23.09375 0 C 24.453125 0 25.269531 -0.816406 25.269531 -2.171875 L 25.269531 -36.40625 L 34.640625 -36.40625 L 43.742188 -1.902344 C 44.015625 -0.679688 44.695312 0 46.054688 0 L 60.179688 0 C 61.675781 0 62.492188 -0.816406 62.082031 -2.445312 L 52.710938 -38.039062 C 59.230469 -40.890625 62.625 -46.867188 62.625 -55.96875 Z M 25.269531 -54.339844 L 25.269531 -90.746094 L 38.71875 -90.746094 C 42.25 -90.746094 44.152344 -88.84375 44.152344 -85.3125 L 44.152344 -59.773438 C 44.152344 -56.242188 42.25 -54.339844 38.71875 -54.339844 Z M 25.269531 -54.339844 "/>
            </g>
        </g>
    </g>
    <g fill="#000000" fill-opacity="1">
        <g transform="translate(536.290131, 134.79915)">
            <g>
                <path d="M 6.792969 -19.5625 C 6.792969 -6.792969 13.585938 0 26.355469 0 L 41.570312 0 C 54.339844 0 61.132812 -6.792969 61.132812 -19.5625 L 61.132812 -89.117188 C 61.132812 -101.886719 54.339844 -108.679688 41.570312 -108.679688 L 26.355469 -108.679688 C 13.585938 -108.679688 6.792969 -101.886719 6.792969 -89.117188 Z M 30.292969 -17.523438 C 26.761719 -17.523438 24.859375 -19.289062 24.859375 -22.957031 L 24.859375 -85.71875 C 24.859375 -89.253906 26.761719 -91.15625 30.292969 -91.15625 L 38.171875 -91.15625 C 41.707031 -91.15625 43.609375 -89.253906 43.609375 -85.71875 L 43.609375 -22.957031 C 43.609375 -19.289062 41.707031 -17.523438 38.171875 -17.523438 Z M 30.292969 -17.523438 "/>
            </g>
        </g>
    </g>
    <g fill="#000000" fill-opacity="1">
        <g transform="translate(608.96922, 134.79915)">
            <g>
                <path d="M 6.792969 -19.5625 C 6.792969 -6.792969 13.585938 0 26.355469 0 L 41.570312 0 C 54.339844 0 61.132812 -6.792969 61.132812 -19.5625 L 61.132812 -89.117188 C 61.132812 -101.886719 54.339844 -108.679688 41.570312 -108.679688 L 26.355469 -108.679688 C 13.585938 -108.679688 6.792969 -101.886719 6.792969 -89.117188 Z M 30.292969 -17.523438 C 26.761719 -17.523438 24.859375 -19.289062 24.859375 -22.957031 L 24.859375 -85.71875 C 24.859375 -89.253906 26.761719 -91.15625 30.292969 -91.15625 L 38.171875 -91.15625 C 41.707031 -91.15625 43.609375 -89.253906 43.609375 -85.71875 L 43.609375 -22.957031 C 43.609375 -19.289062 41.707031 -17.523438 38.171875 -17.523438 Z M 30.292969 -17.523438 "/>
            </g>
        </g>
    </g>
</svg>